<?xml version="1.0" encoding="utf-8"?>
<!-- Generator: Adobe Illustrator 15.0.0, SVG Export Plug-In  -->
<!DOCTYPE svg PUBLIC "-//W3C//DTD SVG 1.1//EN" "http://www.w3.org/Graphics/SVG/1.1/DTD/svg11.dtd" [
	<!ENTITY ns_flows "http://ns.adobe.com/Flows/1.0/">
]>
<svg version="1.1"
	 xmlns="http://www.w3.org/2000/svg" xmlns:xlink="http://www.w3.org/1999/xlink" xmlns:a="http://ns.adobe.com/AdobeSVGViewerExtensions/3.0/"
	 x="0px" y="0px" width="191px" height="46px" viewBox="-2.918 -2.803 191 46"
	 overflow="visible" enable-background="new -2.918 -2.803 191 46" xml:space="preserve">
<defs>
</defs>
<linearGradient id="SVGID_1_" gradientUnits="userSpaceOnUse" x1="19.8906" y1="-0.9785" x2="19.8906" y2="41.0202">
	<stop  offset="0" style="stop-color:#18764C"/>
	<stop  offset="0.6" style="stop-color:#8CCAAE"/>
	<stop  offset="1" style="stop-color:#009461"/>
</linearGradient>
<rect fill="url(#SVGID_1_)" width="39.781" height="39.786"/>
<linearGradient id="SVGID_2_" gradientUnits="userSpaceOnUse" x1="19.8276" y1="-9.8794" x2="19.8276" y2="37.3109">
	<stop  offset="0" style="stop-color:#009461"/>
	<stop  offset="0.3" style="stop-color:#8CCAAE"/>
	<stop  offset="0.55" style="stop-color:#009461"/>
	<stop  offset="0.8352" style="stop-color:#18764C"/>
	<stop  offset="0.8791" style="stop-color:#157C52"/>
	<stop  offset="0.9506" style="stop-color:#068E63"/>
	<stop  offset="1" style="stop-color:#009E73"/>
</linearGradient>
<path fill="url(#SVGID_2_)" d="M38.553,20.121c0,8.312,0.381,16.812,0.381,16.812c-0.014,0.951-0.625,1.561-1.393,1.561H3.111
	c-0.773,0-1.305-0.689-1.396-1.561c0,0-0.995-7.259-0.995-18.357c0-11.087,0.995-16.31,0.995-16.31
	C1.83,1.354,2.338,0.702,3.111,0.702h34.431c0.768,0,1.413,0.714,1.393,1.563C38.935,2.266,38.553,11.82,38.553,20.121z"/>
<linearGradient id="SVGID_3_" gradientUnits="userSpaceOnUse" x1="27.3877" y1="34.7021" x2="27.3877" y2="4.1639">
	<stop  offset="0" style="stop-color:#00A87E"/>
	<stop  offset="1" style="stop-color:#009461"/>
</linearGradient>
<path fill="url(#SVGID_3_)" d="M30.893,10.743c-2.459,1.44-3.212,1.557-5.879,3.159l0.129-0.297c1.401-1.525,2.01-2.169,2.932-3.521
	c-2.468,0.133-6.043,0.43-8.601,0.992l0,0l0,0l0,0l0.133-0.271c2.324-1.129,6.628-2.251,8.827-2.541
	c-0.534-0.754-4.899-3.116-5.985-3.574l0,0l0,0l0,0l0.125-0.275c3.31,0.373,7.691,1.923,9.604,3.096
	c0.803-0.254,1.63-0.281,3.126-0.412c0,0-0.22,0.902-1.85,2.024l0,0l0,0l0,0c0.403,1.084-0.57,7.082-1.372,8.672l0,0l0,0l0,0
	C32.046,15.286,31.825,12.12,30.893,10.743z"/>
<linearGradient id="SVGID_4_" gradientUnits="userSpaceOnUse" x1="8.4409" y1="34.708" x2="8.4409" y2="4.1575">
	<stop  offset="0" style="stop-color:#00A87E"/>
	<stop  offset="1" style="stop-color:#009461"/>
</linearGradient>
<path fill="url(#SVGID_4_)" d="M12.919,32.251l0.125-0.279c-1.309-0.506-2.614-0.908-3.672-1.904l0,0l0,0l0,0l0,0l0,0l0,0l0,0l0,0
	l0,0l0,0l0,0l0,0l0,0l0,0l0,0l0,0l0,0l0,0l0,0l0,0l0,0l0,0l0,0l0,0l0,0l0,0l0,0l0,0l0,0l0,0l0,0
	c0.334-0.927,0.714-1.646,1.335-2.567l0,0l0,0l0,0l0,0l0,0l0,0l0,0l0,0l0,0l0,0l0,0l0,0l0,0l0,0l0,0l0,0l0,0l0,0l0,0l0,0l0,0l0,0
	l0,0l0,0l0,0l0,0l0,0l0,0l0,0l0,0l0,0l0.132-0.279c-1.123,0.17-2.142,0.584-3.114,0.769l0,0l0,0l0,0l0,0l0,0l0,0l0,0l0,0l0,0l0,0
	l0,0l0,0l0,0l0,0l0,0l0,0l0,0l0,0l0,0l0,0l0,0l0,0l0,0l0,0l0,0l0,0l0,0l0,0l0,0l0,0l0,0c-0.764-1.342-1.061-3.187-1.446-4.935
	l-0.127,0.277l0,0l0,0l0,0l0,0l0,0l0,0l0,0l0,0l0,0l0,0l0,0l0,0l0,0l0,0l0,0c-0.217,2-0.306,3.43-0.021,5.029l0,0l0,0l0,0l0,0l0,0
	l0,0l0,0l0,0l0,0l0,0l0,0l0,0l0,0l0,0l0,0l0,0l0,0l0,0l0,0l0,0l0,0l0,0l0,0l0,0l0,0l0,0l0,0l0,0l0,0l0,0l0,0
	c-0.808,0.217-1.517,0.252-2.167,0.534l-0.126,0.271l0,0l0,0l0,0l0,0l0,0l0,0l0,0l0,0l0,0l0,0l0,0l0,0l0,0l0,0l0,0l0,0l0,0l0,0l0,0
	l0,0l0,0l0,0l0,0l0,0l0,0l0,0l0,0l0,0l0,0l0,0l0,0c1.04,0.643,1.884,1.126,3.056,1.678l0,0l0,0l0,0l0,0l0,0l0,0l0,0l0,0l0,0l0,0l0,0
	l0,0l0,0l0,0l0,0l0,0l0,0l0,0l0,0l0,0l0,0l0,0l0,0l0,0l0,0l0,0l0,0l0,0l0,0l0,0l0,0c0.63,1.348,1.277,2.259,2.327,3.299l0,0l0,0l0,0
	l0,0l0,0l0,0l0,0l0,0l0,0l0,0l0,0l0,0l0,0l0,0l0,0l0,0l0,0l0,0l0,0l0,0l0,0l0,0l0,0l0,0l0,0l0,0l0,0l0,0l0,0l0,0l0,0l0.128-0.278
	c-0.188-0.769-0.432-1.401-0.339-2.241l0,0l0,0l0,0l0,0l0,0l0,0l0,0l0,0l0,0l0,0l0,0l0,0l0,0l0,0l0,0l0,0l0,0l0,0l0,0l0,0l0,0l0,0
	l0,0l0,0l0,0l0,0l0,0l0,0l0,0l0,0l0,0C10.312,32.006,11.43,32.21,12.919,32.251z"/>
<linearGradient id="SVGID_5_" gradientUnits="userSpaceOnUse" x1="14.3428" y1="34.7012" x2="14.3428" y2="4.1705">
	<stop  offset="0" style="stop-color:#00A87E"/>
	<stop  offset="1" style="stop-color:#009461"/>
</linearGradient>
<path fill="url(#SVGID_5_)" d="M16.546,12.271c0,0-0.523,0.931-0.947,2.17h-0.1l0,0l0,0c3.065,0.411,5.957,1.653,6.684,2.079
	l-0.127,0.274l0,0l0,0l0,0l0,0l0,0l0,0l0,0c-3.182-0.558-4.855-0.495-6.041-0.389l0,0l0,0l0,0c-1.18,0.114-1.421,0.259-1.421,0.259
	l0,0l0,0l0,0l0,0l0,0l0,0l0,0c-0.684,1.492-1.083,3.926-1.244,4.827l-0.13,0.276l0,0l0,0l0,0l0,0l0,0l0,0l0,0
	c-0.581-1.397-1.42-4.188-1.42-4.188l0,0l0,0l0,0l0,0l0,0l0,0l0,0c-1.6,0.859-5.295,4.328-5.295,4.328l0,0l0,0l0,0l0,0l0,0l0,0l0,0
	c2.039-4.062,4.096-5.917,4.096-5.917l0,0l0,0l0,0l0,0l0,0l0,0l0,0c-0.713-0.714-2.567-1.077-3.923-1.136l0,0l0,0l0,0l0.125-0.271
	c0.851-0.253,2.605-0.355,3.779-0.408l0,0l0,0l0,0l0,0l0,0l0,0l0,0c1.39-0.045,2.232,0.037,2.232,0.037l0,0l0,0l0,0
	C14.049,13.225,15.896,12.363,16.546,12.271z"/>
<linearGradient id="SVGID_6_" gradientUnits="userSpaceOnUse" x1="19.4468" y1="34.7041" x2="19.4468" y2="4.1604">
	<stop  offset="0" style="stop-color:#00A87E"/>
	<stop  offset="1" style="stop-color:#009461"/>
</linearGradient>
<path fill="url(#SVGID_6_)" d="M20.444,29.729c-0.642,0.871-1.192,1.561-1.9,2.354l0,0l0,0l0,0l0,0l0,0l0,0l0,0l0,0l0,0l0,0l0,0l0,0
	l0,0l0,0l0,0l0,0l0,0l0,0l0,0l0,0l0,0l0,0l0,0l0,0l0,0l0,0l0,0l0,0l0,0l0,0l0,0c-1.045,0.293-2.301,0.159-3.271,0.193l-0.126,0.279
	l0,0l0,0l0,0l0,0l0,0l0,0l0,0l0,0l0,0l0,0l0,0l0,0l0,0l0,0l0,0l0,0l0,0l0,0l0,0l0,0l0,0l0,0l0,0l0,0l0,0l0,0l0,0l0,0l0,0l0,0l0,0
	c0.725,0.374,1.44,0.605,2.201,0.76l0,0l0,0l0,0l0,0l0,0l0,0l0,0l0,0l0,0l0,0l0,0l0,0l0,0l0,0l0,0l0,0l0,0l0,0l0,0l0,0l0,0l0,0l0,0
	l0,0l0,0l0,0l0,0l0,0l0,0l0,0l0,0c-0.612,0.562-1.441,0.993-2.02,1.378l-0.128,0.277l0,0l0,0l0,0l0,0l0,0l0,0l0,0l0,0l0,0l0,0l0,0
	l0,0l0,0l0,0l0,0l0,0l0,0l0,0l0,0l0,0l0,0l0,0l0,0l0,0l0,0l0,0l0,0l0,0l0,0l0,0l0,0c1.242-0.297,2.877-0.817,4.099-1.543l0,0l0,0
	l0,0l0,0l0,0l0,0l0,0l0,0l0,0l0,0l0,0l0,0l0,0l0,0l0,0l0,0l0,0l0,0l0,0l0,0l0,0l0,0l0,0l0,0l0,0l0,0l0,0l0,0l0,0l0,0l0,0
	c0.633,0.033,1.224-0.014,1.659-0.101l0,0l0,0l0,0l0,0l0,0l0,0l0,0l0,0l0,0l0,0l0,0l0,0l0,0l0,0l0,0l0,0l0,0l0,0l0,0l0,0l0,0l0,0
	l0,0l0,0l0,0l0,0l0,0l0,0l0,0l0,0l0,0c0,0,0.13-0.281,0.13-0.271c-0.079-0.286-0.329-0.456-0.401-0.846l0,0l0,0l0,0l0,0l0,0l0,0l0,0
	l0,0l0,0l0,0l0,0l0,0l0,0l0,0l0,0l0,0l0,0l0,0l0,0l0,0l0,0l0,0l0,0l0,0l0,0l0,0l0,0l0,0l0,0l0,0l0,0
	c1.142-0.887,1.97-1.7,2.926-2.657l0,0l0,0l0,0l0,0l0,0l0,0l0,0l0,0l0,0l0,0l0,0l0,0l0,0l0,0l0,0l0,0l0,0l0,0l0,0l0,0l0,0l0,0l0,0
	l0,0l0,0l0,0l0,0l0,0l0,0l0,0l0,0l0.133-0.281c-0.945,0.648-2.092,1.549-3.194,2.066l0,0l0,0l0,0l0,0l0,0l0,0l0,0l0,0l0,0l0,0l0,0
	l0,0l0,0l0,0l0,0l0,0l0,0l0,0l0,0l0,0l0,0l0,0l0,0l0,0l0,0l0,0l0,0l0,0l0,0l0,0l0,0C20.506,30.801,20.472,30.34,20.444,29.729z"/>
<path fill="#FFFFFF" d="M31.017,10.465c-2.454,1.44-3.204,1.562-5.874,3.164c1.553-1.687,2.094-2.407,3.055-3.816
	c-2.458,0.128-6.035,0.425-8.591,0.992l0,0l0,0l0,0c2.222-1.191,6.63-2.507,8.956-2.825c-0.539-0.743-4.904-3.108-5.99-3.565l0,0
	l0,0l0,0c3.455,0.269,7.682,1.562,9.731,2.814c0.804-0.252,1.643-0.264,3.141-0.397l0,0l0,0l0,0
	c-0.382,0.657-0.396,1.037-1.866,2.011l0,0l0,0l0,0c0.407,1.092-0.57,7.085-1.371,8.676l0,0l0,0l0,0
	C32.177,15.012,31.958,11.842,31.017,10.465z"/>
<path fill="#FFFFFF" d="M13.044,31.972c-1.413-0.521-2.43-1.131-3.546-2.173l0,0l0,0l0,0l0,0l0,0l0,0l0,0l0,0l0,0l0,0l0,0l0,0l0,0
	l0,0l0,0l0,0l0,0l0,0l0,0l0,0l0,0l0,0l0,0l0,0l0,0l0,0l0,0l0,0l0,0l0,0l0,0c0.335-0.928,0.718-1.645,1.341-2.578l0,0l0,0l0,0l0,0
	l0,0l0,0l0,0l0,0l0,0l0,0l0,0l0,0l0,0l0,0l0,0l0,0l0,0l0,0l0,0l0,0l0,0l0,0l0,0l0,0l0,0l0,0l0,0l0,0l0,0l0,0l0,0
	c-1.149,0.172-1.99,0.304-2.98,0.492l0,0l0,0l0,0l0,0l0,0l0,0l0,0l0,0l0,0l0,0l0,0l0,0l0,0l0,0l0,0l0,0l0,0l0,0l0,0l0,0l0,0l0,0l0,0
	l0,0l0,0l0,0l0,0l0,0l0,0l0,0l0,0c-0.807-1.41-1.171-2.768-1.58-4.658l0,0l0,0l0,0l0,0l0,0l0,0l0,0l0,0l0,0l0,0l0,0l0,0l0,0l0,0l0,0
	c-0.218,2.004-0.302,3.436-0.02,5.031l0,0l0,0l0,0l0,0l0,0l0,0l0,0l0,0l0,0l0,0l0,0l0,0l0,0l0,0l0,0l0,0l0,0l0,0l0,0l0,0l0,0l0,0
	l0,0l0,0l0,0l0,0l0,0l0,0l0,0l0,0l0,0c-0.91,0.25-1.55,0.468-2.295,0.81l0,0l0,0l0,0l0,0l0,0l0,0l0,0l0,0l0,0l0,0l0,0l0,0l0,0l0,0
	l0,0l0,0l0,0l0,0l0,0l0,0l0,0l0,0l0,0l0,0l0,0l0,0l0,0l0,0l0,0l0,0l0,0c1.044,0.638,1.887,1.128,3.056,1.672l0,0l0,0l0,0l0,0l0,0
	l0,0l0,0l0,0l0,0l0,0l0,0l0,0l0,0l0,0l0,0l0,0l0,0l0,0l0,0l0,0l0,0l0,0l0,0l0,0l0,0l0,0l0,0l0,0l0,0l0,0l0,0
	c0.629,1.343,1.279,2.259,2.33,3.297l0,0l0,0l0,0l0,0l0,0l0,0l0,0l0,0l0,0l0,0l0,0l0,0l0,0l0,0l0,0l0,0l0,0l0,0l0,0l0,0l0,0l0,0l0,0
	l0,0l0,0l0,0l0,0l0,0l0,0l0,0l0,0c-0.247-0.884-0.312-1.589-0.207-2.52l0,0l0,0l0,0l0,0l0,0l0,0l0,0l0,0l0,0l0,0l0,0l0,0l0,0l0,0
	l0,0l0,0l0,0l0,0l0,0l0,0l0,0l0,0l0,0l0,0l0,0l0,0l0,0l0,0l0,0l0,0l0,0C10.444,31.729,11.562,31.933,13.044,31.972z"/>
<path fill="#FFFFFF" d="M16.715,12.033L16.715,12.033L16.715,12.033L16.715,12.033L16.715,12.033
	c-0.439,0.568-0.951,1.634-1.086,2.127l0,0l0,0l0,0c3.635,0.493,6.553,2.36,6.553,2.36l0,0l0,0l0,0l0,0l0,0l0,0l0,0
	c-3.179-0.564-4.853-0.492-6.042-0.386l0,0l0,0l0,0c-1.178,0.112-1.418,0.25-1.418,0.25l0,0l0,0l0,0l0,0l0,0l0,0l0,0
	c-0.861,1.877-1.374,5.107-1.374,5.107l0,0l0,0l0,0l0,0l0,0l0,0l0,0c-0.58-1.396-1.415-4.19-1.415-4.19l0,0l0,0l0,0l0,0l0,0l0,0l0,0
	c-1.604,0.857-5.294,4.329-5.294,4.329l0,0l0,0l0,0l0,0l0,0l0,0l0,0c2.027-4.061,4.087-5.915,4.087-5.915l0,0l0,0l0,0l0,0l0,0l0,0
	l0,0c-0.711-0.714-2.566-1.07-3.925-1.131l0,0l0,0l0,0c0.705-0.289,2.515-0.625,3.905-0.692l0,0l0,0l0,0l0,0l0,0l0,0l0,0
	c1.392-0.037,2.233,0.04,2.233,0.04l0,0l0,0l0,0C14.184,12.955,16.069,12.126,16.715,12.033z"/>
<path fill="#FFFFFF" d="M20.573,29.457c-0.64,0.869-1.194,1.553-1.904,2.351l0,0l0,0l0,0l0,0l0,0l0,0l0,0l0,0l0,0l0,0l0,0l0,0l0,0
	l0,0l0,0l0,0l0,0l0,0l0,0l0,0l0,0l0,0l0,0l0,0l0,0l0,0l0,0l0,0l0,0l0,0l0,0c-1.226,0.338-2.201,0.468-3.395,0.468l0,0l0,0l0,0l0,0
	l0,0l0,0l0,0l0,0l0,0l0,0l0,0l0,0l0,0l0,0l0,0l0,0l0,0l0,0l0,0l0,0l0,0l0,0l0,0l0,0l0,0l0,0l0,0l0,0l0,0l0,0l0,0
	c0.734,0.381,1.442,0.605,2.208,0.765l0,0l0,0l0,0l0,0l0,0l0,0l0,0l0,0l0,0l0,0l0,0l0,0l0,0l0,0l0,0l0,0l0,0l0,0l0,0l0,0l0,0l0,0
	l0,0l0,0l0,0l0,0l0,0l0,0l0,0l0,0l0,0c-0.766,0.69-1.411,1.188-2.152,1.652l0,0l0,0l0,0l0,0l0,0l0,0l0,0l0,0l0,0l0,0l0,0l0,0l0,0
	l0,0l0,0l0,0l0,0l0,0l0,0l0,0l0,0l0,0l0,0l0,0l0,0l0,0l0,0l0,0l0,0l0,0l0,0c1.244-0.289,2.879-0.821,4.095-1.534l0,0l0,0l0,0l0,0
	l0,0l0,0l0,0l0,0l0,0l0,0l0,0l0,0l0,0l0,0l0,0l0,0l0,0l0,0l0,0l0,0l0,0l0,0l0,0l0,0l0,0l0,0l0,0l0,0l0,0l0,0l0,0
	c0.634,0.021,1.229-0.022,1.665-0.103l0,0l0,0l0,0l0,0l0,0l0,0l0,0l0,0l0,0l0,0l0,0l0,0l0,0l0,0l0,0l0,0l0,0l0,0l0,0l0,0l0,0l0,0
	l0,0l0,0l0,0l0,0l0,0l0,0l0,0l0,0l0,0c-0.114-0.376-0.183-0.649-0.274-1.123l0,0l0,0l0,0l0,0l0,0l0,0l0,0l0,0l0,0l0,0l0,0l0,0l0,0
	l0,0l0,0l0,0l0,0l0,0l0,0l0,0l0,0l0,0l0,0l0,0l0,0l0,0l0,0l0,0l0,0l0,0l0,0c1.146-0.892,1.976-1.694,2.932-2.661l0,0l0,0l0,0l0,0
	l0,0l0,0l0,0l0,0l0,0l0,0l0,0l0,0l0,0l0,0l0,0l0,0l0,0l0,0l0,0l0,0l0,0l0,0l0,0l0,0l0,0l0,0l0,0l0,0l0,0l0,0l0,0
	c-1.017,0.712-1.895,1.236-3.064,1.79l0,0l0,0l0,0l0,0l0,0l0,0l0,0l0,0l0,0l0,0l0,0l0,0l0,0l0,0l0,0l0,0l0,0l0,0l0,0l0,0l0,0l0,0
	l0,0l0,0l0,0l0,0l0,0l0,0l0,0l0,0l0,0C20.629,30.523,20.6,30.062,20.573,29.457z"/>
<path d="M49.738,5.491c0.103,1.39,0.173,4.859,0.173,6.138c0,1.163-0.011,5.073-0.19,6.764l-0.019,0.14l6.106,0.002
	c2.98,0,6.166-0.948,6.166-3.612c0-1.67-1.206-2.911-3.466-3.584c1.655-0.446,2.784-1.596,2.784-2.924
	c0-2.168-2.495-2.996-4.83-3.046c-0.006,0-6.736-0.005-6.736-0.005L49.738,5.491z M54.457,6.832
	c2.548,0.008,3.497,0.535,3.497,1.932c0,0.375-0.116,0.698-0.343,0.971c-0.487,0.59-1.458,0.89-2.667,0.828h-0.056l-0.707,1.849
	h0.713c1.403-0.042,2.627,0.398,3.248,1.172c0.291,0.354,0.436,0.755,0.436,1.188c0,1.467-1.276,2.215-3.788,2.215
	c-0.422,0-1.106-0.004-1.543-0.03c-0.09-1.928-0.094-4.55-0.094-5.326c0-0.918,0.04-2.969,0.101-4.713
	C53.534,6.865,54.019,6.826,54.457,6.832z"/>
<path d="M76.048,5.363h-2.957l0.123,3.307c0.053,1.654,0.104,3.341,0.218,4.971l0,0l0,0c-0.204-0.496-0.367-0.771-1.254-2.082
	C72.148,11.515,69.07,6.746,68,5.397l-0.03-0.034h-3.455l0.009,0.125c0.101,1.383,0.173,4.855,0.173,6.134
	c0,1.167-0.012,5.08-0.193,6.771l-0.012,0.138h3.065l-0.008-0.133c-0.178-3.223-0.178-6.463-0.178-9.593V8.793
	c0.105,0.375,0.25,0.718,0.735,1.438c0.047,0.082,5.315,7.787,5.586,8.244l0.028,0.056h2.464l-0.018-0.138
	c-0.179-1.69-0.19-5.604-0.19-6.771c0-1.278,0.072-4.751,0.173-6.134l0.006-0.125H76.048z"/>
<path d="M79.616,5.484c0.099,1.395,0.175,4.859,0.175,6.138c0,1.167-0.012,5.08-0.198,6.766l-0.009,0.135h3.656l-0.018-0.135
	c-0.126-1.201-0.173-3.52-0.188-5.304c0.149,0.009,0.672,0.034,0.672,0.034l0.516,0.026c4.814,0,7.159-1.293,7.159-3.963
	c0-3.052-3.284-3.764-6.035-3.818l-5.739-0.005L79.616,5.484z M84.094,6.945c1.707-0.029,2.917,0.326,3.491,1.034
	c0.262,0.329,0.395,0.729,0.395,1.202c0,1.906-2.129,2.304-3.912,2.304l-0.723-0.022c0,0-0.181-0.026-0.295-0.045
	c-0.007-0.436-0.014-1.006-0.014-1.664c0-0.84,0.011-1.803,0.042-2.717C83.303,6.985,83.702,6.957,84.094,6.945z"/>
<path d="M98.362,5.484c0.101,1.395,0.176,4.859,0.176,6.138c0,1.167-0.016,5.08-0.198,6.766l-0.012,0.135h3.658l-0.017-0.135
	c-0.126-1.201-0.168-3.52-0.187-5.304c0.152,0.009,0.664,0.034,0.664,0.034l0.52,0.026c4.812,0,7.159-1.293,7.159-3.963
	c0-3.052-3.282-3.764-6.035-3.818l-5.734-0.005L98.362,5.484z M102.841,6.945c1.709-0.029,2.92,0.326,3.493,1.034
	c0.26,0.329,0.394,0.729,0.394,1.202c0,1.906-2.127,2.304-3.92,2.304l-0.725-0.022c0,0-0.172-0.026-0.279-0.045
	c-0.019-0.436-0.026-1.011-0.026-1.669c0-0.844,0.013-1.798,0.048-2.712C102.05,6.985,102.447,6.957,102.841,6.945z"/>
<path d="M115.021,5.368h-0.059l-0.025,0.071c-0.68,1.874-5.055,11.445-5.732,12.913l-0.09,0.182h3.141l0.02-0.072
	c0.275-0.903,0.625-1.923,1.037-3.023c0.115,0,2.586-0.041,2.586-0.041l2.139,0.024c0,0,0.375,0.017,0.469,0.017
	c0.566,1.414,0.982,2.492,1.164,3.023l0.029,0.072h3.631l-5.854-13.166h-0.057H115.021z M115.916,9.248
	c0.291,0.614,1.043,2.381,1.885,4.458c-0.127,0.002-0.279,0.006-0.279,0.006l-1.605,0.026c0,0-1.668-0.03-1.924-0.04
	C114.669,12.028,115.335,10.523,115.916,9.248z"/>
<path d="M124.777,5.488c0.096,1.383,0.174,4.855,0.174,6.134c0,1.167-0.016,5.08-0.201,6.766l-0.014,0.143h3.656l-0.014-0.138
	c-0.178-1.698-0.193-5.604-0.193-6.771c0-0.911,0.043-2.963,0.107-4.593c0.301-0.044,0.705-0.072,0.986-0.084
	c1.707-0.029,2.912,0.331,3.49,1.039c0.264,0.324,0.398,0.725,0.398,1.197c0,1.513-1.426,2.281-2.754,2.357
	c-0.439,0.02-0.773-0.041-0.777-0.041l-0.246-0.039l0.16,0.229c1.281,1.905,3.227,5.212,4.049,6.786l0.027,0.06h3.918l-0.119-0.194
	c-0.131-0.217-2.699-3.987-3.793-5.6c0,0-0.033-0.056-0.07-0.096c1.996-0.605,2.977-1.737,2.977-3.463
	c0-3.05-3.287-3.754-6.037-3.813l-5.738-0.005L124.777,5.488z"/>
<path d="M142.738,5.355h-3.504l0.01,0.125c0.104,1.391,0.178,4.863,0.178,6.139c0,1.162-0.018,5.071-0.199,6.767l-0.008,0.133h3.652
	l-0.02-0.133c-0.172-1.695-0.189-5.604-0.189-6.767c0-1.275,0.074-4.748,0.174-6.139l0.008-0.125H142.738z"/>
<path d="M146.16,5.491c0.102,1.388,0.168,4.859,0.168,6.138c0,1.163-0.01,5.073-0.193,6.764l-0.008,0.14l6.104,0.002
	c2.979,0,6.166-0.948,6.166-3.612c0-1.67-1.207-2.911-3.471-3.584c1.662-0.446,2.787-1.596,2.787-2.924
	c0-2.168-2.488-2.996-4.83-3.046l-6.734-0.005L146.16,5.491z M150.875,6.832L150.875,6.832c2.551,0.008,3.496,0.535,3.496,1.932
	c0,0.375-0.119,0.698-0.342,0.971c-0.479,0.59-1.451,0.89-2.662,0.828h-0.064l-0.695,1.849h0.711
	c1.406-0.042,2.617,0.398,3.244,1.172c0.291,0.354,0.436,0.755,0.436,1.188c0,1.467-1.273,2.215-3.781,2.215
	c-0.434,0-1.117-0.004-1.553-0.03c-0.086-1.928-0.09-4.55-0.09-5.326c0-0.923,0.039-2.97,0.105-4.713
	C149.955,6.865,150.435,6.826,150.875,6.832z"/>
<path d="M167.382,5.355h-2.457L164.9,5.428c-0.721,1.988-5.352,12.083-5.736,12.914l-0.086,0.177h3.141l0.02-0.076
	c0.271-0.898,0.625-1.914,1.035-3.021c0.111-0.003,2.586-0.04,2.586-0.04l2.139,0.032c0,0,0.377,0.005,0.469,0.008
	c0.568,1.421,0.984,2.488,1.17,3.022l0.02,0.074h3.635l-5.848-13.163H167.382z M165.873,9.234c0.295,0.617,1.039,2.378,1.893,4.452
	c-0.131,0.004-0.277,0.012-0.277,0.012l-1.615,0.028c0,0-1.656-0.036-1.918-0.04C164.628,12.011,165.302,10.516,165.873,9.234z"/>
<path d="M174.312,8.773c0,2.314,2.322,3.245,4.367,4.083c1.6,0.641,3.24,1.311,3.24,2.412c0,0.339-0.072,0.605-0.248,0.809
	c-0.383,0.455-1.164,0.647-2.402,0.588c-1.205-0.061-2.586-0.453-4.111-1.16l-0.646-0.293l0.008,0.504v2.369l0.414,0.088
	l0.252,0.053c0.771,0.185,2.229,0.533,3.705,0.533c3.855,0,6.16-1.531,6.16-4.089c0-2.372-2.381-3.321-4.477-4.154
	c-1.553-0.621-3.152-1.258-3.152-2.273c0-0.291,0-1.174,1.986-1.174c1.48,0,2.934,0.603,3.713,0.929l0.754,0.312l-0.006-0.5V5.418
	l-0.748-0.129c-0.734-0.148-1.98-0.389-3.275-0.389C176.533,4.9,174.312,6.453,174.312,8.773z"/>
<path d="M58.89,25.407c-0.634-0.372-1.417-0.679-2.427-0.679c-2.962,0-3.988,2.34-3.988,4.344c0,2.787,1.71,4.186,4.006,4.186
	c1.434,0,2.508-0.669,3.468-1.513l0.018,2.414c-0.978,0.386-2.183,0.73-3.992,0.73c-4.136,0-6.726-2.57-6.726-5.845
	c0-3.457,2.738-5.95,7.247-5.95c1.059,0,2.087,0.166,3.079,0.412L58.89,25.407z"/>
<path d="M68.88,23.296c0.44,1.173,4.184,9.512,5.061,11.396h-3.139c-0.179-0.521-0.555-1.462-1.042-2.687
	c-0.652-0.012-1.319-0.034-2.246-0.034c-0.865,0-1.516,0.022-2.265,0.034c-0.359,0.963-0.653,1.84-0.914,2.687H61.6
	c0.654-1.415,4.478-9.726,5.082-11.396H68.88z M69.155,30.508l-1.627-3.86c-0.522,1.108-1.092,2.406-1.692,3.86
	c0.486,0.018,1.154,0.031,1.692,0.031C68.049,30.539,68.606,30.525,69.155,30.508z"/>
<path d="M80.905,23.296c2.393,0,5.244,0.665,5.244,3.306c0,1.48-0.863,2.471-2.574,2.996c0.242,0.486,2.997,4.673,3.454,5.095
	h-3.405c-0.751-1.415-2.444-4.283-3.681-6.142c0.212,0.05,0.521,0.088,0.88,0.088c0.99,0,2.392-0.721,2.392-2.037
	c0-1.645-1.985-1.943-2.978-1.943c-0.506,0-0.994,0.036-1.238,0.07c-0.065,1.415-0.097,3.189-0.097,3.992
	c0,1.008,0,4.375,0.178,5.972h-3.174c0.163-1.579,0.193-3.614,0.193-5.972c0-1.993-0.015-4.37-0.162-5.425H80.905z"/>
<path d="M93.565,23.296c4.804,0,6.646,2.526,6.646,5.681c0,3.26-1.791,5.716-6.823,5.716h-4.236
	c0.161-1.526,0.161-3.631,0.161-5.963c0-1.105,0-3.955-0.161-5.434H93.565z M92.229,24.729c-0.067,0.747-0.084,2.688-0.084,4.001
	c0,1.665,0,2.966,0.066,4.516c0.164,0.013,0.424,0.047,0.815,0.047c2.75,0,4.185-0.861,4.185-4.366c0-3.338-1.467-4.282-4.25-4.215
	L92.229,24.729z"/>
<path d="M106.062,23.296c-0.098,1.313-0.164,4.312-0.164,5.434c0,0.999,0.016,4.384,0.164,5.963H102.9
	c0.168-1.579,0.177-4.964,0.177-5.963c0-1.105-0.063-4.12-0.144-5.434H106.062z"/>
<path d="M118.148,23.296v1.647c-0.9-0.055-3.127-0.119-3.877-0.119c-0.555,0-1.176,0-1.807,0.049
	c-0.055,0.7-0.068,1.582-0.068,2.346c0,0.373,0,0.72,0.014,0.991l3.98-0.065v1.775l-3.98-0.162c0.025,1.451,0.035,3.697,0.188,4.935
	h-3.193c0.193-1.579,0.193-4.964,0.193-5.963c0-1.105-0.08-4.12-0.182-5.434H118.148z"/>
</svg>
